
            <svg xmlns="http://www.w3.org/2000/svg" xmlns:cc="http://creativecommons.org/ns#" xmlns:rdf="http://www.w3.org/1999/02/22-rdf-syntax-ns#" version="1.1" width="545.265625" height="113.3437728881836">
              <defs>
                <style type="text/css">svg {
            background-color: #fff; }
          
          .root text,
          .root tspan {
            font: 12px Arial; }
          
          .root path {
            fill-opacity: 0;
            stroke-width: 2px;
            stroke: #000; }
          
          .root circle {
            fill: #6b6659;
            stroke-width: 2px;
            stroke: #000; }
          
          .anchor text, .any-character text {
            fill: #fff; }
          
          .anchor rect, .any-character rect {
            fill: #6b6659; }
          
          .escape text, .charset-escape text, .literal text {
            fill: #000; }
          
          .escape rect, .charset-escape rect {
            fill: #bada55; }
          
          .literal rect {
            fill: #dae9e5; }
          
          .charset .charset-box {
            fill: #cbcbba; }
          
          .subexp .subexp-label tspan,
          .charset .charset-label tspan,
          .match-fragment .repeat-label tspan {
            font-size: 10px; }
          
          .repeat-label {
            cursor: help; }
          
          .subexp .subexp-label tspan,
          .charset .charset-label tspan {
            dominant-baseline: text-after-edge; }
          
          .subexp .subexp-box {
            stroke: #908c83;
            stroke-dasharray: 6,2;
            stroke-width: 2px;
            fill-opacity: 0; }
          
          .quote {
            fill: #908c83; }
          </style>
              </defs>
              <metadata>
                <rdf:rdf>
                  <cc:license rdf:about="http://creativecommons.org/licenses/by/3.0/">
                    <cc:permits rdf:resource="http://creativecommons.org/ns#Reproduction"></cc:permits>
                    <cc:permits rdf:resource="http://creativecommons.org/ns#Distribution"></cc:permits>
                    <cc:requires rdf:resource="http://creativecommons.org/ns#Notice"></cc:requires>
                    <cc:requires rdf:resource="http://creativecommons.org/ns#Attribution"></cc:requires>
                    <cc:permits rdf:resource="http://creativecommons.org/ns#DerivativeWorks"></cc:permits>
                  </cc:license>
                </rdf:rdf>
              </metadata>
            <desc>Created with Snap</desc><g class="root" transform="matrix(1,0,0,1,15,10)"><g class="regexp match" transform="matrix(1,0,0,1,10,0)"><path d="M25,52.17183750000001H55M92.8125,52.1718375H127.8125M152.8125,52.17183750000001H177.8125M243.84375,52.1718864440918H268.8438M297.18755,52.17183750000001H307.1875M460.265625,52.17183750000001H470.2656"></path><g class="match-fragment literal" transform="matrix(1,0,0,1,0,40.3359)"><g class="label"><rect width="25" height="23.671875" rx="3" ry="3"></rect><text x="0" y="0" transform="matrix(1,0,0,1,5,16.8359)"><tspan class="quote">“</tspan><tspan>&lt;</tspan><tspan class="quote">”</tspan></text></g></g><g class="match-fragment subexp" transform="matrix(1,0,0,1,35,3.2265)"><rect rx="3" ry="3" class="subexp-box" transform="matrix(1,0,0,1,0,11.1094)" width="82.8125" height="74.671875"></rect><text x="0" y="0" class="subexp-label" transform="matrix(1,0,0,1,0,11.1094)"><tspan>group #1</tspan></text><g class="regexp match match-fragment" transform="matrix(1,0,0,1,10,21.1094)"><path d="M10,27.8359375q-10,0 -10,10v6.8359375q0,10 10,10h37.8125q10,0 10,-10v-6.8359375q0,-10 -10,-10M57.8125,42.8359375l5,-5m-5,5l-5,-5"></path><g class="charset" transform="matrix(1,0,0,1,10,0)"><rect rx="3" ry="3" class="charset-box" transform="matrix(1,0,0,1,0,11)" width="37.8125" height="33.671875"></rect><text x="0" y="0" class="charset-label" transform="matrix(1,0,0,1,0,11)"><tspan>None of:</tspan></text><g transform="matrix(1,0,0,1,6.4063,16)"><g class="literal" transform="matrix(1,0,0,1,0,0)"><g class="label"><rect width="25" height="23.671875" rx="3" ry="3"></rect><text x="0" y="0" transform="matrix(1,0,0,1,5,16.8359)"><tspan class="quote">“</tspan><tspan>&gt;</tspan><tspan class="quote">”</tspan></text></g></g></g></g></g></g><g class="match-fragment literal" transform="matrix(1,0,0,1,127.8125,40.3359)"><g class="label"><rect width="25" height="23.671875" rx="3" ry="3"></rect><text x="0" y="0" transform="matrix(1,0,0,1,5,16.8359)"><tspan class="quote">“</tspan><tspan>&gt;</tspan><tspan class="quote">”</tspan></text></g></g><g class="match-fragment" transform="matrix(1,0,0,1,162.8125,0)"><path d="M0,52.1718864440918q10,0 10,-10v-32.1718864440918q0,-10 10,-10h56.03125q10,0 10,10v32.1718864440918q0,10 10,10M15,52.1718864440918q-10,0 -10,10v21.171886444091797q0,10 10,10h66.03125q10,0 10,-10v-21.171886444091797q0,-10 -10,-10M91.03125,67.1718864440918l5,-5m-5,5l-5,-5"></path><g class="charset" transform="matrix(1,0,0,1,15,10)"><rect rx="3" ry="3" class="charset-box" transform="matrix(1,0,0,1,0,11)" width="66.03125" height="62.343772888183594"></rect><text x="0" y="0" class="charset-label" transform="matrix(1,0,0,1,0,11)"><tspan>One of:</tspan></text><g transform="matrix(1,0,0,1,5,16)"><g class="charset-escape" transform="matrix(1,0,0,1,12.0078,0)"><g class="label"><rect width="32.015625" height="23.671875" rx="3" ry="3"></rect><text x="0" y="0" transform="matrix(1,0,0,1,5,16.8359)"><tspan>digit</tspan></text></g></g><g class="charset-escape" transform="matrix(1,0,0,1,0,28.6719)"><g class="label"><rect width="56.03125" height="23.671875" rx="3" ry="3"></rect><text x="0" y="0" transform="matrix(1,0,0,1,5,16.8359)"><tspan>non-digit</tspan></text></g></g></g></g></g><g class="match-fragment literal" transform="matrix(1,0,0,1,268.8438,40.3359)"><g class="label"><rect width="28.34375" height="23.671875" rx="3" ry="3"></rect><text x="0" y="0" transform="matrix(1,0,0,1,5,16.8359)"><tspan class="quote">“</tspan><tspan>&lt;/</tspan><tspan class="quote">”</tspan></text></g></g><g class="match-fragment escape" transform="matrix(1,0,0,1,307.1875,40.3359)"><g class="label"><rect width="153.078125" height="23.671875" rx="3" ry="3"></rect><text x="0" y="0" transform="matrix(1,0,0,1,5,16.8359)"><tspan>Back reference (group = 1)</tspan></text></g></g><g class="match-fragment literal" transform="matrix(1,0,0,1,470.2656,40.3359)"><g class="label"><rect width="25" height="23.671875" rx="3" ry="3"></rect><text x="0" y="0" transform="matrix(1,0,0,1,5,16.8359)"><tspan class="quote">“</tspan><tspan>&gt;</tspan><tspan class="quote">”</tspan></text></g></g></g><path d="M10,52.17183750000001H0M505.2656,52.17183750000001H515.2655944824219"></path><circle cx="0" cy="52.17183750000001" r="5"></circle><circle cx="515.2655944824219" cy="52.17183750000001" r="5"></circle></g></svg>
          