
            <svg xmlns="http://www.w3.org/2000/svg" xmlns:cc="http://creativecommons.org/ns#" xmlns:rdf="http://www.w3.org/1999/02/22-rdf-syntax-ns#" version="1.1" width="245.0000762939453" height="305">
              <defs>
                <style type="text/css">svg {
            background-color: #fff; }
          
          .root text,
          .root tspan {
            font: 12px Arial; }
          
          .root path {
            fill-opacity: 0;
            stroke-width: 2px;
            stroke: #000; }
          
          .root circle {
            fill: #6b6659;
            stroke-width: 2px;
            stroke: #000; }
          
          .anchor text, .any-character text {
            fill: #fff; }
          
          .anchor rect, .any-character rect {
            fill: #6b6659; }
          
          .escape text, .charset-escape text, .literal text {
            fill: #000; }
          
          .escape rect, .charset-escape rect {
            fill: #bada55; }
          
          .literal rect {
            fill: #dae9e5; }
          
          .charset .charset-box {
            fill: #cbcbba; }
          
          .subexp .subexp-label tspan,
          .charset .charset-label tspan,
          .match-fragment .repeat-label tspan {
            font-size: 10px; }
          
          .repeat-label {
            cursor: help; }
          
          .subexp .subexp-label tspan,
          .charset .charset-label tspan {
            dominant-baseline: text-after-edge; }
          
          .subexp .subexp-box {
            stroke: #908c83;
            stroke-dasharray: 6,2;
            stroke-width: 2px;
            fill-opacity: 0; }
          
          .quote {
            fill: #908c83; }
          </style>
              </defs>
              <metadata>
                <rdf:rdf>
                  <cc:license rdf:about="http://creativecommons.org/licenses/by/3.0/">
                    <cc:permits rdf:resource="http://creativecommons.org/ns#Reproduction"></cc:permits>
                    <cc:permits rdf:resource="http://creativecommons.org/ns#Distribution"></cc:permits>
                    <cc:requires rdf:resource="http://creativecommons.org/ns#Notice"></cc:requires>
                    <cc:requires rdf:resource="http://creativecommons.org/ns#Attribution"></cc:requires>
                    <cc:permits rdf:resource="http://creativecommons.org/ns#DerivativeWorks"></cc:permits>
                  </cc:license>
                </rdf:rdf>
              </metadata>
            <desc>Created with Snap</desc><g class="root" transform="matrix(1,0,0,1,15,9.8906)"><g class="regexp match" transform="matrix(1,0,0,1,10,0)"><path d="M24.671875,148.1094H44.6719"></path><g class="match-fragment literal" transform="matrix(1,0,0,1,0,136.3594)"><g class="label"><rect width="24.671875" height="23.5" rx="3" ry="3"></rect><text x="0" y="0" transform="matrix(1,0,0,1,5,16.75)"><tspan class="quote">“</tspan><tspan>#</tspan><tspan class="quote">”</tspan></text></g></g><g class="match-fragment subexp" transform="matrix(1,0,0,1,34.6719,0)"><rect rx="3" ry="3" class="subexp-box" transform="matrix(1,0,0,1,0,11.1094)" width="160.3281707763672" height="274"></rect><text x="0" y="0" class="subexp-label" transform="matrix(1,0,0,1,0,11.1094)"><tspan>group #1</tspan></text><g class="regexp" transform="matrix(1,0,0,1,10,21.1094)"><path d="M10,66.25q0,-10 10,-10M130.32817840576172,66.25q0,-10 -10,-10M10,175.75q0,10 10,10M130.32817840576172,175.75q0,10 -10,10M0,127q10,0 10,-10V66.25M140.32817840576172,127q-10,0 -10,-10V66.25M0,127q10,0 10,10V175.75M140.32817840576172,127q-10,0 -10,10V175.75"></path><g transform="matrix(1,0,0,1,20,0)" class="regexp-matches"><path d="M0,56.25h10M85.328125,56.25H100.32817840576172M0,185.75h10M85.328125,185.75H100.32817840576172"></path><g class="match match-fragment" transform="matrix(1,0,0,1,0,0)"><path d="M10,56.25q-10,0 -10,10v35.25q0,10 10,10h75.328125q10,0 10,-10v-35.25q0,-10 -10,-10M95.328125,71.25l5,-5m-5,5l-5,-5"></path><g class="charset" transform="matrix(1,0,0,1,10,0)"><rect rx="3" ry="3" class="charset-box" transform="matrix(1,0,0,1,0,11)" width="75.328125" height="90.5"></rect><text x="0" y="0" class="charset-label" transform="matrix(1,0,0,1,0,11)"><tspan>One of:</tspan></text><g transform="matrix(1,0,0,1,5,16)"><g class="charset-range" transform="matrix(1,0,0,1,0.9922,0)"><text x="0" y="0" transform="matrix(1,0,0,1,29.6719,16)">-</text><g class="literal" transform="matrix(1,0,0,1,0,0)"><g class="label"><rect width="24.671875" height="23.5" rx="3" ry="3"></rect><text x="0" y="0" transform="matrix(1,0,0,1,5,16.75)"><tspan class="quote">“</tspan><tspan>0</tspan><tspan class="quote">”</tspan></text></g></g><g class="literal" transform="matrix(1,0,0,1,38.6719,0)"><g class="label"><rect width="24.671875" height="23.5" rx="3" ry="3"></rect><text x="0" y="0" transform="matrix(1,0,0,1,5,16.75)"><tspan class="quote">“</tspan><tspan>9</tspan><tspan class="quote">”</tspan></text></g></g></g><g class="charset-range" transform="matrix(1,0,0,1,1.3281,28.5)"><text x="0" y="0" transform="matrix(1,0,0,1,29.6719,16)">-</text><g class="literal" transform="matrix(1,0,0,1,0,0)"><g class="label"><rect width="24.671875" height="23.5" rx="3" ry="3"></rect><text x="0" y="0" transform="matrix(1,0,0,1,5,16.75)"><tspan class="quote">“</tspan><tspan>a</tspan><tspan class="quote">”</tspan></text></g></g><g class="literal" transform="matrix(1,0,0,1,38.6719,0)"><g class="label"><rect width="24" height="23.5" rx="3" ry="3"></rect><text x="0" y="0" transform="matrix(1,0,0,1,5,16.75)"><tspan class="quote">“</tspan><tspan>z</tspan><tspan class="quote">”</tspan></text></g></g></g><g class="charset-range" transform="matrix(1,0,0,1,0,57)"><text x="0" y="0" transform="matrix(1,0,0,1,31,16)">-</text><g class="literal" transform="matrix(1,0,0,1,0,0)"><g class="label"><rect width="26" height="23.5" rx="3" ry="3"></rect><text x="0" y="0" transform="matrix(1,0,0,1,5,16.75)"><tspan class="quote">“</tspan><tspan>A</tspan><tspan class="quote">”</tspan></text></g></g><g class="literal" transform="matrix(1,0,0,1,40,0)"><g class="label"><rect width="25.328125" height="23.5" rx="3" ry="3"></rect><text x="0" y="0" transform="matrix(1,0,0,1,5,16.75)"><tspan class="quote">“</tspan><tspan>Z</tspan><tspan class="quote">”</tspan></text></g></g></g></g></g><text x="0" y="0" class="repeat-label" transform="matrix(1,0,0,1,68.0938,122.5)"><tspan>2 times</tspan><title><text x="0" y="0">repeats 3 times in total</text></title></text></g><g class="match match-fragment" transform="matrix(1,0,0,1,0,129.5)"><path d="M10,56.25q-10,0 -10,10v35.25q0,10 10,10h75.328125q10,0 10,-10v-35.25q0,-10 -10,-10M95.328125,71.25l5,-5m-5,5l-5,-5"></path><g class="charset" transform="matrix(1,0,0,1,10,0)"><rect rx="3" ry="3" class="charset-box" transform="matrix(1,0,0,1,0,11)" width="75.328125" height="90.5"></rect><text x="0" y="0" class="charset-label" transform="matrix(1,0,0,1,0,11)"><tspan>One of:</tspan></text><g transform="matrix(1,0,0,1,5,16)"><g class="charset-range" transform="matrix(1,0,0,1,0.9922,0)"><text x="0" y="0" transform="matrix(1,0,0,1,29.6719,16)">-</text><g class="literal" transform="matrix(1,0,0,1,0,0)"><g class="label"><rect width="24.671875" height="23.5" rx="3" ry="3"></rect><text x="0" y="0" transform="matrix(1,0,0,1,5,16.75)"><tspan class="quote">“</tspan><tspan>0</tspan><tspan class="quote">”</tspan></text></g></g><g class="literal" transform="matrix(1,0,0,1,38.6719,0)"><g class="label"><rect width="24.671875" height="23.5" rx="3" ry="3"></rect><text x="0" y="0" transform="matrix(1,0,0,1,5,16.75)"><tspan class="quote">“</tspan><tspan>9</tspan><tspan class="quote">”</tspan></text></g></g></g><g class="charset-range" transform="matrix(1,0,0,1,1.3281,28.5)"><text x="0" y="0" transform="matrix(1,0,0,1,29.6719,16)">-</text><g class="literal" transform="matrix(1,0,0,1,0,0)"><g class="label"><rect width="24.671875" height="23.5" rx="3" ry="3"></rect><text x="0" y="0" transform="matrix(1,0,0,1,5,16.75)"><tspan class="quote">“</tspan><tspan>a</tspan><tspan class="quote">”</tspan></text></g></g><g class="literal" transform="matrix(1,0,0,1,38.6719,0)"><g class="label"><rect width="24" height="23.5" rx="3" ry="3"></rect><text x="0" y="0" transform="matrix(1,0,0,1,5,16.75)"><tspan class="quote">“</tspan><tspan>z</tspan><tspan class="quote">”</tspan></text></g></g></g><g class="charset-range" transform="matrix(1,0,0,1,0,57)"><text x="0" y="0" transform="matrix(1,0,0,1,31,16)">-</text><g class="literal" transform="matrix(1,0,0,1,0,0)"><g class="label"><rect width="26" height="23.5" rx="3" ry="3"></rect><text x="0" y="0" transform="matrix(1,0,0,1,5,16.75)"><tspan class="quote">“</tspan><tspan>A</tspan><tspan class="quote">”</tspan></text></g></g><g class="literal" transform="matrix(1,0,0,1,40,0)"><g class="label"><rect width="25.328125" height="23.5" rx="3" ry="3"></rect><text x="0" y="0" transform="matrix(1,0,0,1,5,16.75)"><tspan class="quote">“</tspan><tspan>Z</tspan><tspan class="quote">”</tspan></text></g></g></g></g></g><text x="0" y="0" class="repeat-label" transform="matrix(1,0,0,1,68.0938,122.5)"><tspan>5 times</tspan><title><text x="0" y="0">repeats 6 times in total</text></title></text></g></g></g></g></g><path d="M10,148.1094H0M195.00007077636718,148.1094H215.0000762939453"></path><circle cx="0" cy="148.1094" r="5"></circle><circle cx="215.0000762939453" cy="148.1094" r="5"></circle></g></svg>
          