
            <svg xmlns="http://www.w3.org/2000/svg" xmlns:cc="http://creativecommons.org/ns#" xmlns:rdf="http://www.w3.org/1999/02/22-rdf-syntax-ns#" version="1.1" width="496.1250305175781" height="131.5">
              <defs>
                <style type="text/css">svg {
            background-color: #fff; }
          
          .root text,
          .root tspan {
            font: 12px Arial; }
          
          .root path {
            fill-opacity: 0;
            stroke-width: 2px;
            stroke: #000; }
          
          .root circle {
            fill: #6b6659;
            stroke-width: 2px;
            stroke: #000; }
          
          .anchor text, .any-character text {
            fill: #fff; }
          
          .anchor rect, .any-character rect {
            fill: #6b6659; }
          
          .escape text, .charset-escape text, .literal text {
            fill: #000; }
          
          .escape rect, .charset-escape rect {
            fill: #bada55; }
          
          .literal rect {
            fill: #dae9e5; }
          
          .charset .charset-box {
            fill: #cbcbba; }
          
          .subexp .subexp-label tspan,
          .charset .charset-label tspan,
          .match-fragment .repeat-label tspan {
            font-size: 10px; }
          
          .repeat-label {
            cursor: help; }
          
          .subexp .subexp-label tspan,
          .charset .charset-label tspan {
            dominant-baseline: text-after-edge; }
          
          .subexp .subexp-box {
            stroke: #908c83;
            stroke-dasharray: 6,2;
            stroke-width: 2px;
            fill-opacity: 0; }
          
          .quote {
            fill: #908c83; }
          </style>
              </defs>
              <metadata>
                <rdf:rdf>
                  <cc:license rdf:about="http://creativecommons.org/licenses/by/3.0/">
                    <cc:permits rdf:resource="http://creativecommons.org/ns#Reproduction"></cc:permits>
                    <cc:permits rdf:resource="http://creativecommons.org/ns#Distribution"></cc:permits>
                    <cc:requires rdf:resource="http://creativecommons.org/ns#Notice"></cc:requires>
                    <cc:requires rdf:resource="http://creativecommons.org/ns#Attribution"></cc:requires>
                    <cc:permits rdf:resource="http://creativecommons.org/ns#DerivativeWorks"></cc:permits>
                  </cc:license>
                </rdf:rdf>
              </metadata>
            <desc>Created with Snap</desc><g class="root" transform="matrix(1,0,0,1,15,9.8906)"><g class="regexp match" transform="matrix(1,0,0,1,10,0)"><path d="M42.015625,61.359425H77.0157M139.01569999999998,61.3594H169.0157M201.031325,61.359425H226.0313M379.109425,61.359425H399.1094"></path><g class="match-fragment" transform="matrix(1,0,0,1,0,49.5938)"><path d="M10,11.765625q-10,0 -10,10v1.765625q0,10 10,10h32.015625q10,0 10,-10v-1.765625q0,-10 -10,-10M52.015625,26.765625l5,-5m-5,5l-5,-5"></path><g class="escape" transform="matrix(1,0,0,1,10,0)"><g class="label"><rect width="32.015625" height="23.53125" rx="3" ry="3"></rect><text x="0" y="0" transform="matrix(1,0,0,1,5,16.7656)"><tspan>digit</tspan></text></g></g><text x="0" y="0" class="repeat-label" transform="matrix(1,0,0,1,24.7813,44.5313)"><tspan>3 times</tspan><title><text x="0" y="0">repeats 4 times in total</text></title></text></g><g class="match-fragment subexp" transform="matrix(1,0,0,1,67.0157,0)"><rect rx="3" ry="3" class="subexp-box" transform="matrix(1,0,0,1,0,11.1094)" width="82" height="100.5"></rect><text x="0" y="0" class="subexp-label" transform="matrix(1,0,0,1,0,11.1094)"><tspan>group #1</tspan></text><g class="regexp" transform="matrix(1,0,0,1,10,21.1094)"><path d="M10,21.75q0,-10 10,-10M52,21.75q0,-10 -10,-10M0,40.25c10,0 10,0 20,0M62,40.25c-10,0 -10,0 -20,0M10,58.75q0,10 10,10M52,58.75q0,10 -10,10M0,40.25q10,0 10,-10V21.75M62,40.25q-10,0 -10,-10V21.75M0,40.25q10,0 10,10V58.75M62,40.25q-10,0 -10,10V58.75"></path><g transform="matrix(1,0,0,1,20,0)" class="regexp-matches"><path d="M0,11.75h0M22,11.75H22M0,40.25h0.3359M21.664025,40.25H22M0,68.75h0.3359M21.664025,68.75H22"></path><g class="match match-fragment literal" transform="matrix(1,0,0,1,0,0)"><g class="label"><rect width="22" height="23.5" rx="3" ry="3"></rect><text x="0" y="0" transform="matrix(1,0,0,1,5,16.75)"><tspan class="quote">“</tspan><tspan>-</tspan><tspan class="quote">”</tspan></text></g></g><g class="match match-fragment literal" transform="matrix(1,0,0,1,0.3359,28.5)"><g class="label"><rect width="21.328125" height="23.5" rx="3" ry="3"></rect><text x="0" y="0" transform="matrix(1,0,0,1,5,16.75)"><tspan class="quote">“</tspan><tspan>/</tspan><tspan class="quote">”</tspan></text></g></g><g class="match match-fragment literal" transform="matrix(1,0,0,1,0.3359,57)"><g class="label"><rect width="21.328125" height="23.5" rx="3" ry="3"></rect><text x="0" y="0" transform="matrix(1,0,0,1,5,16.75)"><tspan class="quote">“</tspan><tspan>.</tspan><tspan class="quote">”</tspan></text></g></g></g></g></g><g class="match-fragment" transform="matrix(1,0,0,1,159.0157,49.5938)"><path d="M10,11.765625q-10,0 -10,10v1.765625q0,10 10,10h32.015625q10,0 10,-10v-1.765625q0,-10 -10,-10M52.015625,26.765625l5,-5m-5,5l-5,-5"></path><g class="escape" transform="matrix(1,0,0,1,10,0)"><g class="label"><rect width="32.015625" height="23.53125" rx="3" ry="3"></rect><text x="0" y="0" transform="matrix(1,0,0,1,5,16.7656)"><tspan>digit</tspan></text></g></g><text x="0" y="0" class="repeat-label" transform="matrix(1,0,0,1,35.3281,44.5313)"><tspan>once</tspan><title><text x="0" y="0">repeats 2 times in total</text></title></text></g><g class="match-fragment escape" transform="matrix(1,0,0,1,226.0313,49.5938)"><g class="label"><rect width="153.078125" height="23.53125" rx="3" ry="3"></rect><text x="0" y="0" transform="matrix(1,0,0,1,5,16.7656)"><tspan>Back reference (group = 1)</tspan></text></g></g><g class="match-fragment" transform="matrix(1,0,0,1,389.1094,49.5938)"><path d="M10,11.765625q-10,0 -10,10v1.765625q0,10 10,10h32.015625q10,0 10,-10v-1.765625q0,-10 -10,-10M52.015625,26.765625l5,-5m-5,5l-5,-5"></path><g class="escape" transform="matrix(1,0,0,1,10,0)"><g class="label"><rect width="32.015625" height="23.53125" rx="3" ry="3"></rect><text x="0" y="0" transform="matrix(1,0,0,1,5,16.7656)"><tspan>digit</tspan></text></g></g><text x="0" y="0" class="repeat-label" transform="matrix(1,0,0,1,35.3281,44.5313)"><tspan>once</tspan><title><text x="0" y="0">repeats 2 times in total</text></title></text></g></g><path d="M20,61.359425H0M441.125025,61.359425H466.1250305175781"></path><circle cx="0" cy="61.359425" r="5"></circle><circle cx="466.1250305175781" cy="61.359425" r="5"></circle></g></svg>
          