
            <svg xmlns="http://www.w3.org/2000/svg" xmlns:cc="http://creativecommons.org/ns#" xmlns:rdf="http://www.w3.org/1999/02/22-rdf-syntax-ns#" version="1.1" width="333.140625" height="76.5">
              <defs>
                <style type="text/css">svg {
            background-color: #fff; }
          
          .root text,
          .root tspan {
            font: 12px Arial; }
          
          .root path {
            fill-opacity: 0;
            stroke-width: 2px;
            stroke: #000; }
          
          .root circle {
            fill: #6b6659;
            stroke-width: 2px;
            stroke: #000; }
          
          .anchor text, .any-character text {
            fill: #fff; }
          
          .anchor rect, .any-character rect {
            fill: #6b6659; }
          
          .escape text, .charset-escape text, .literal text {
            fill: #000; }
          
          .escape rect, .charset-escape rect {
            fill: #bada55; }
          
          .literal rect {
            fill: #dae9e5; }
          
          .charset .charset-box {
            fill: #cbcbba; }
          
          .subexp .subexp-label tspan,
          .charset .charset-label tspan,
          .match-fragment .repeat-label tspan {
            font-size: 10px; }
          
          .repeat-label {
            cursor: help; }
          
          .subexp .subexp-label tspan,
          .charset .charset-label tspan {
            dominant-baseline: text-after-edge; }
          
          .subexp .subexp-box {
            stroke: #908c83;
            stroke-dasharray: 6,2;
            stroke-width: 2px;
            fill-opacity: 0; }
          
          .quote {
            fill: #908c83; }
          </style>
              </defs>
              <metadata>
                <rdf:rdf>
                  <cc:license rdf:about="http://creativecommons.org/licenses/by/3.0/">
                    <cc:permits rdf:resource="http://creativecommons.org/ns#Reproduction"></cc:permits>
                    <cc:permits rdf:resource="http://creativecommons.org/ns#Distribution"></cc:permits>
                    <cc:requires rdf:resource="http://creativecommons.org/ns#Notice"></cc:requires>
                    <cc:requires rdf:resource="http://creativecommons.org/ns#Attribution"></cc:requires>
                    <cc:permits rdf:resource="http://creativecommons.org/ns#DerivativeWorks"></cc:permits>
                  </cc:license>
                </rdf:rdf>
              </metadata>
            <desc>Created with Snap</desc><g class="root" transform="matrix(1,0,0,1,15,10)"><g class="regexp match" transform="matrix(1,0,0,1,10,0)"><path d="M34.671875,21.75H64.6719M89.343775,21.75H127.4688M152.140675,21.75H187.1406M211.812475,21.75H246.8125"></path><g class="match-fragment" transform="matrix(1,0,0,1,0,10)"><path d="M10,11.75q-10,0 -10,10v1.75q0,10 10,10h24.671875q10,0 10,-10v-1.75q0,-10 -10,-10"></path><g class="literal" transform="matrix(1,0,0,1,10,0)"><g class="label"><rect width="24.671875" height="23.5" rx="3" ry="3"></rect><text x="0" y="0" transform="matrix(1,0,0,1,5,16.75)"><tspan class="quote">“</tspan><tspan>a</tspan><tspan class="quote">”</tspan></text></g></g></g><g class="match-fragment" transform="matrix(1,0,0,1,54.6719,10)"><path d="M10,11.75q-10,0 -10,10v1.75q0,10 10,10h24.671875q10,0 10,-10v-1.75q0,-10 -10,-10"></path><g class="literal" transform="matrix(1,0,0,1,10,0)"><g class="label"><rect width="24.671875" height="23.5" rx="3" ry="3"></rect><text x="0" y="0" transform="matrix(1,0,0,1,5,16.75)"><tspan class="quote">“</tspan><tspan>b</tspan><tspan class="quote">”</tspan></text></g></g><text x="0" y="0" class="repeat-label" transform="matrix(1,0,0,1,0,44.5)"><tspan>1…3 times</tspan><title><text x="0" y="0">repeats 2…4 times in total</text></title></text></g><g class="match-fragment" transform="matrix(1,0,0,1,112.4688,0)"><path d="M0,21.75q10,0 10,-10v-1.75q0,-10 10,-10h14.671875q10,0 10,10v1.75q0,10 10,10M10,6.75l5,5m-5,-5l-5,5"></path><g class="literal" transform="matrix(1,0,0,1,15,10)"><g class="label"><rect width="24.671875" height="23.5" rx="3" ry="3"></rect><text x="0" y="0" transform="matrix(1,0,0,1,5,16.75)"><tspan class="quote">“</tspan><tspan>d</tspan><tspan class="quote">”</tspan></text></g></g></g><g class="match-fragment" transform="matrix(1,0,0,1,177.1406,10)"><path d="M10,11.75q-10,0 -10,10v1.75q0,10 10,10h24.671875q10,0 10,-10v-1.75q0,-10 -10,-10"></path><g class="literal" transform="matrix(1,0,0,1,10,0)"><g class="label"><rect width="24.671875" height="23.5" rx="3" ry="3"></rect><text x="0" y="0" transform="matrix(1,0,0,1,5,16.75)"><tspan class="quote">“</tspan><tspan>e</tspan><tspan class="quote">”</tspan></text></g></g></g><g class="match-fragment" transform="matrix(1,0,0,1,231.8125,0)"><path d="M0,21.75q10,0 10,-10v-1.75q0,-10 10,-10h11.328125q10,0 10,10v1.75q0,10 10,10M10,6.75l5,5m-5,-5l-5,5M15,21.75q-10,0 -10,10v1.75q0,10 10,10h21.328125q10,0 10,-10v-1.75q0,-10 -10,-10"></path><g class="literal" transform="matrix(1,0,0,1,15,10)"><g class="label"><rect width="21.328125" height="23.5" rx="3" ry="3"></rect><text x="0" y="0" transform="matrix(1,0,0,1,5,16.75)"><tspan class="quote">“</tspan><tspan>f</tspan><tspan class="quote">”</tspan></text></g></g></g></g><path d="M20,21.75H0M278.140625,21.75H303.140625"></path><circle cx="0" cy="21.75" r="5"></circle><circle cx="303.140625" cy="21.75" r="5"></circle></g></svg>
          